G04 EAGLE Gerber RS-274X export*
G75*
%MOMM*%
%FSLAX34Y34*%
%LPD*%
%INBottom Copper*%
%IPPOS*%
%AMOC8*
5,1,8,0,0,1.08239X$1,22.5*%
G01*
%ADD10C,1.408000*%
%ADD11R,1.508000X1.508000*%
%ADD12C,1.508000*%
%ADD13P,1.429621X8X22.500000*%
%ADD14P,1.429621X8X202.500000*%
%ADD15P,1.429621X8X292.500000*%
%ADD16C,1.676400*%
%ADD17C,1.524000*%
%ADD18C,1.320800*%
%ADD19C,1.778000*%
%ADD20C,0.152400*%
%ADD21C,0.508000*%
%ADD22C,0.304800*%
%ADD23C,0.203200*%


D10*
X723900Y612300D03*
X723900Y632300D03*
X152400Y66200D03*
X152400Y86200D03*
X241300Y66200D03*
X241300Y86200D03*
X317500Y66200D03*
X317500Y86200D03*
X381000Y66200D03*
X381000Y86200D03*
X660400Y98900D03*
X660400Y78900D03*
D11*
X444500Y469900D03*
D12*
X419100Y469900D03*
X393700Y469900D03*
X368300Y469900D03*
X342900Y469900D03*
X317500Y469900D03*
X292100Y469900D03*
X266700Y469900D03*
X241300Y469900D03*
X215900Y469900D03*
X190500Y469900D03*
X165100Y469900D03*
X444500Y317500D03*
X419100Y317500D03*
X393700Y317500D03*
X368300Y317500D03*
X342900Y317500D03*
X317500Y317500D03*
X266700Y317500D03*
X241300Y317500D03*
X190500Y317500D03*
X165100Y317500D03*
X215900Y317500D03*
X292100Y317500D03*
X139700Y469900D03*
X114300Y469900D03*
X88900Y469900D03*
X139700Y317500D03*
X114300Y317500D03*
X88900Y317500D03*
D13*
X368300Y736600D03*
X444500Y736600D03*
D14*
X342900Y736600D03*
X266700Y736600D03*
D15*
X152400Y203200D03*
X152400Y127000D03*
X241300Y203200D03*
X241300Y127000D03*
X317500Y203200D03*
X317500Y127000D03*
X381000Y203200D03*
X381000Y127000D03*
D14*
X762000Y254000D03*
X685800Y254000D03*
D13*
X685800Y431800D03*
X762000Y431800D03*
X685800Y406400D03*
X762000Y406400D03*
X685800Y381000D03*
X762000Y381000D03*
D14*
X762000Y355600D03*
X685800Y355600D03*
D13*
X685800Y330200D03*
X762000Y330200D03*
D16*
X732282Y762000D02*
X715518Y762000D01*
X715518Y723900D02*
X732282Y723900D01*
X732282Y685800D02*
X715518Y685800D01*
D17*
X190500Y728980D02*
X190500Y744220D01*
X165100Y744220D02*
X165100Y728980D01*
X139700Y728980D02*
X139700Y744220D01*
X114300Y744220D02*
X114300Y728980D01*
X88900Y728980D02*
X88900Y744220D01*
X63500Y744220D02*
X63500Y728980D01*
X38100Y728980D02*
X38100Y744220D01*
D18*
X564896Y457200D02*
X578104Y457200D01*
X578104Y431800D02*
X564896Y431800D01*
X641096Y330200D02*
X654304Y330200D01*
X654304Y355600D02*
X641096Y355600D01*
X578104Y406400D02*
X564896Y406400D01*
X564896Y381000D02*
X578104Y381000D01*
X578104Y330200D02*
X564896Y330200D01*
X564896Y355600D02*
X578104Y355600D01*
X641096Y381000D02*
X654304Y381000D01*
X654304Y406400D02*
X641096Y406400D01*
X641096Y431800D02*
X654304Y431800D01*
X654304Y457200D02*
X641096Y457200D01*
D12*
X425450Y584200D03*
D11*
X425450Y558800D03*
D12*
X425450Y609600D03*
X425450Y635000D03*
X425450Y660400D03*
X425450Y685800D03*
D19*
X508000Y85090D02*
X508000Y67310D01*
X533400Y67310D02*
X533400Y85090D01*
X482600Y85090D02*
X482600Y67310D01*
X457200Y67310D02*
X457200Y85090D01*
X431800Y85090D02*
X431800Y67310D01*
X558800Y67310D02*
X558800Y85090D01*
X584200Y85090D02*
X584200Y67310D01*
X609600Y67310D02*
X609600Y85090D01*
D12*
X514350Y736600D03*
X539750Y736600D03*
X654050Y736600D03*
X628650Y736600D03*
X666750Y558800D03*
X641350Y558800D03*
X508000Y558800D03*
X533400Y558800D03*
X558800Y558800D03*
D20*
X660400Y254000D02*
X685800Y254000D01*
D21*
X622300Y254000D02*
X419100Y254000D01*
X622300Y254000D02*
X685800Y254000D01*
X406400Y266700D02*
X368300Y266700D01*
X317500Y317500D01*
X406400Y266700D02*
X419100Y254000D01*
X660400Y215900D02*
X660400Y98900D01*
X660400Y215900D02*
X622300Y254000D01*
X317500Y127000D02*
X317500Y86200D01*
X165100Y266700D02*
X215900Y317500D01*
X165100Y266700D02*
X88900Y266700D01*
X63500Y241300D01*
X63500Y165100D01*
X76200Y152400D01*
X304800Y152400D01*
X317500Y139700D01*
X317500Y127000D01*
X152400Y127000D02*
X152400Y86200D01*
X32766Y132230D02*
X32766Y274170D01*
X37996Y127000D02*
X152400Y127000D01*
X37996Y127000D02*
X32766Y132230D01*
X139700Y292100D02*
X165100Y317500D01*
X139700Y292100D02*
X50696Y292100D01*
X32766Y274170D01*
X241300Y127000D02*
X241300Y86200D01*
X241300Y127000D02*
X228600Y139700D01*
X63500Y139700D01*
X50800Y152400D01*
X50800Y254000D01*
X73152Y276352D01*
X149352Y276352D01*
X190500Y317500D01*
X266700Y317500D02*
X266700Y304672D01*
X330072Y241300D01*
X381000Y241300D02*
X508000Y114300D01*
X508000Y76200D01*
X381000Y241300D02*
X330072Y241300D01*
D20*
X292100Y316304D02*
X292100Y317500D01*
X482600Y76200D02*
X482600Y64205D01*
D21*
X393700Y254000D02*
X342900Y254000D01*
X292100Y304800D01*
X292100Y317500D01*
X482600Y76200D02*
X482600Y50800D01*
X495300Y38100D01*
X533400Y38100D01*
X546100Y50800D01*
D22*
X546100Y101600D01*
D21*
X393700Y254000D01*
X406400Y736600D02*
X444500Y736600D01*
X406400Y736600D02*
X381000Y711200D01*
X381000Y654050D02*
X425450Y609600D01*
X381000Y654050D02*
X381000Y711200D01*
X364490Y758190D02*
X431800Y758190D01*
X364490Y758190D02*
X342900Y736600D01*
X431800Y758190D02*
X444500Y745490D01*
X444500Y736600D01*
X368300Y533400D02*
X419100Y482600D01*
X368300Y533400D02*
X368300Y736600D01*
X419100Y482600D02*
X419100Y469900D01*
X444500Y565150D02*
X425450Y584200D01*
X444500Y565150D02*
X444500Y469900D01*
X381000Y127000D02*
X381000Y86200D01*
X177800Y254000D02*
X241300Y317500D01*
X177800Y254000D02*
X101600Y254000D01*
X88900Y241300D02*
X88900Y177800D01*
X101600Y165100D01*
X368300Y165100D01*
X381000Y152400D01*
X381000Y127000D01*
X101600Y254000D02*
X88900Y241300D01*
X152400Y203200D02*
X241300Y203200D01*
X317500Y203200D01*
X381000Y203200D01*
D20*
X760476Y328676D02*
X762000Y330200D01*
D21*
X762000Y355600D01*
X762000Y381000D01*
X762000Y406400D01*
X762000Y431800D01*
X317500Y215900D02*
X317500Y203200D01*
X317500Y215900D02*
X254000Y279400D01*
X762000Y254000D02*
X762000Y330200D01*
X762000Y254000D02*
X762000Y63500D01*
X467614Y14986D02*
X457200Y25400D01*
X457200Y76200D01*
X254000Y279400D02*
X254000Y330200D01*
X203200Y381000D01*
D22*
X203200Y495300D01*
D21*
X762000Y495300D02*
X762000Y431800D01*
X425450Y635000D02*
X393700Y666750D01*
X457200Y711200D02*
X469900Y723900D01*
X469900Y749300D01*
X444500Y774700D01*
X304800Y774700D01*
X266700Y736600D01*
X304800Y774700D02*
X76200Y774700D01*
X38100Y736600D01*
X266700Y736600D02*
X317500Y685800D01*
X317500Y558800D01*
X215900Y508000D02*
X203200Y495300D01*
X266700Y508000D02*
X317500Y558800D01*
X254000Y508000D02*
X215900Y508000D01*
X254000Y508000D02*
X266700Y508000D01*
X419100Y342900D02*
X419100Y317500D01*
X419100Y342900D02*
X406400Y355600D01*
X304800Y355600D02*
X228600Y431800D01*
D22*
X228600Y482600D01*
D21*
X254000Y508000D01*
X304800Y355600D02*
X406400Y355600D01*
X666750Y558800D02*
X698500Y558800D01*
X762000Y495300D01*
X476250Y584200D02*
X425450Y635000D01*
X641350Y533400D02*
X666750Y558800D01*
X571500Y584200D02*
X476250Y584200D01*
X571500Y584200D02*
X622300Y533400D01*
X641350Y533400D01*
X368300Y469900D02*
X368300Y444500D01*
X393700Y419100D01*
X482600Y419100D02*
X571500Y508000D01*
X615950Y508000D01*
X482600Y419100D02*
X393700Y419100D01*
X615950Y508000D02*
X641350Y533400D01*
X762000Y63500D02*
X713486Y14986D01*
X467614Y14986D01*
X723900Y632300D02*
X752000Y632300D01*
X762000Y622300D01*
X762000Y495300D01*
X419100Y711200D02*
X393700Y685800D01*
X419100Y711200D02*
X457200Y711200D01*
X393700Y685800D02*
X393700Y666750D01*
X241300Y66200D02*
X152400Y66200D01*
X241300Y66200D02*
X317500Y66200D01*
X381000Y66200D01*
X425450Y660400D02*
X508000Y660400D01*
X723900Y381000D02*
X723900Y355600D01*
X723900Y381000D02*
X723900Y406400D01*
X723900Y431800D01*
X584200Y406400D02*
X571500Y406400D01*
X711200Y419100D02*
X723900Y431800D01*
X586366Y381000D02*
X571500Y381000D01*
X711200Y393700D02*
X723900Y406400D01*
D23*
X584200Y355600D02*
X571500Y355600D01*
D20*
X584200Y355600D02*
X586366Y355600D01*
D21*
X711200Y368300D02*
X723900Y381000D01*
X609600Y330200D02*
X571500Y330200D01*
X711200Y342900D02*
X723900Y355600D01*
X152400Y66200D02*
X44911Y66200D01*
X18923Y92188D01*
D20*
X565023Y323723D02*
X571500Y330200D01*
D21*
X36322Y785622D02*
X18923Y768223D01*
X18923Y692023D01*
X18923Y92188D01*
X381000Y66200D02*
X421800Y66200D01*
X431800Y76200D01*
X660400Y78900D02*
X685800Y78900D01*
X660400Y78900D02*
X606900Y25400D01*
X495300Y25400D01*
X469900Y50800D01*
D22*
X469900Y101600D01*
D21*
X457200Y114300D01*
X444500Y114300D01*
X431800Y101600D01*
X431800Y76200D01*
X18923Y692023D02*
X63500Y736600D01*
X539623Y298323D02*
X571500Y330200D01*
X539623Y298323D02*
X373581Y298323D01*
X368300Y303604D02*
X368300Y317500D01*
X368300Y303604D02*
X373581Y298323D01*
X723900Y685800D02*
X736600Y685800D01*
X749300Y698500D01*
X749300Y774700D01*
X738378Y785622D01*
X633222Y785622D02*
X36322Y785622D01*
X633222Y785622D02*
X685800Y785622D01*
X738378Y785622D01*
X633222Y785622D02*
X508000Y660400D01*
X641350Y741172D02*
X641350Y558800D01*
X641350Y741172D02*
X685800Y785622D01*
D20*
X573666Y431800D02*
X571500Y431800D01*
D21*
X723900Y431800D02*
X723900Y469900D01*
X711200Y482600D01*
X622300Y482600D01*
X571500Y431800D01*
X723900Y117000D02*
X685800Y78900D01*
X723900Y117000D02*
X723900Y355600D01*
D22*
X711200Y342900D02*
X622300Y342900D01*
D21*
X609600Y330200D01*
X596900Y355600D02*
X584200Y355600D01*
X596900Y355600D02*
X609600Y368300D01*
D22*
X711200Y368300D01*
X711200Y393700D02*
X599066Y393700D01*
D21*
X586366Y381000D01*
X584200Y406400D02*
X596900Y419100D01*
D22*
X711200Y419100D01*
D21*
X685800Y330200D02*
X647700Y330200D01*
X596900Y279400D01*
X368300Y279400D02*
X355600Y292100D01*
X368300Y279400D02*
X596900Y279400D01*
X355600Y330200D02*
X342900Y342900D01*
X355600Y330200D02*
X355600Y292100D01*
X215900Y419100D02*
X215900Y469900D01*
X215900Y419100D02*
X292100Y342900D01*
X342900Y342900D01*
X647700Y406400D02*
X685800Y406400D01*
X292100Y457200D02*
X292100Y469900D01*
D22*
X584200Y393700D02*
X596900Y406400D01*
X584200Y393700D02*
X355600Y393700D01*
D21*
X596900Y406400D02*
X647700Y406400D01*
X355600Y393700D02*
X292100Y457200D01*
X139700Y469900D02*
X139700Y660400D01*
X190500Y736600D02*
X190500Y749300D01*
X177800Y762000D01*
X139700Y762000D01*
D22*
X127000Y749300D01*
X127000Y673100D01*
D21*
X139700Y660400D01*
X165100Y698500D02*
X190500Y673100D01*
X165100Y698500D02*
X165100Y736600D01*
X190500Y673100D02*
X190500Y469900D01*
X165100Y660400D02*
X139700Y685800D01*
X139700Y736600D01*
X165100Y660400D02*
X165100Y469900D01*
X114300Y469900D02*
X114300Y736600D01*
X88900Y419100D02*
X88900Y317500D01*
X88900Y419100D02*
X101600Y431800D01*
D22*
X101600Y508000D01*
D21*
X88900Y520700D01*
X88900Y736600D01*
X647700Y381000D02*
X685800Y381000D01*
X342900Y381000D02*
X266700Y457200D01*
X266700Y469900D01*
X342900Y381000D02*
X508000Y381000D01*
X596900Y368300D02*
X609600Y381000D01*
D22*
X596900Y368300D02*
X520700Y368300D01*
D21*
X609600Y381000D02*
X647700Y381000D01*
X520700Y368300D02*
X508000Y381000D01*
X647700Y355600D02*
X685800Y355600D01*
X330200Y368300D02*
X241300Y457200D01*
X241300Y469900D01*
X330200Y368300D02*
X495300Y368300D01*
X596900Y342900D02*
X609600Y355600D01*
D22*
X596900Y342900D02*
X520700Y342900D01*
D21*
X609600Y355600D02*
X647700Y355600D01*
X520700Y342900D02*
X495300Y368300D01*
X647700Y431800D02*
X685800Y431800D01*
X647700Y431800D02*
X596900Y431800D01*
X342900Y431800D02*
X342900Y469900D01*
X342900Y431800D02*
X368300Y406400D01*
D22*
X584200Y419100D02*
X596900Y431800D01*
D21*
X546100Y419100D02*
X533400Y406400D01*
D22*
X546100Y419100D02*
X584200Y419100D01*
D21*
X533400Y406400D02*
X368300Y406400D01*
D20*
X723900Y612300D02*
X723900Y619111D01*
X723900Y721969D02*
X723900Y723900D01*
D21*
X723900Y721969D02*
X692150Y690219D01*
X692150Y615950D02*
X698500Y609600D01*
X721200Y609600D01*
X723900Y612300D01*
X692150Y615950D02*
X692150Y690219D01*
X558800Y558800D02*
X501777Y501777D01*
X501777Y461957D01*
X484320Y444500D01*
D22*
X393700Y444500D02*
X381000Y457200D01*
X381000Y482600D01*
D21*
X355600Y508000D01*
X342900Y508000D02*
X317500Y482600D01*
X317500Y469900D01*
X393700Y444500D02*
X484320Y444500D01*
X355600Y508000D02*
X342900Y508000D01*
M02*
