G04 EAGLE Gerber RS-274X export*
G75*
%MOMM*%
%FSLAX34Y34*%
%LPD*%
%IN*%
%IPPOS*%
%AMOC8*
5,1,8,0,0,1.08239X$1,22.5*%
G01*
%ADD10C,0.254000*%


D10*
X0Y0D02*
X796800Y0D01*
X796800Y800000D01*
X0Y800000D01*
X0Y0D01*
X71755Y469494D02*
X71676Y468687D01*
X71517Y467892D01*
X71282Y467116D01*
X70971Y466366D01*
X70589Y465651D01*
X70138Y464977D01*
X69624Y464350D01*
X69050Y463776D01*
X68423Y463262D01*
X67749Y462811D01*
X67034Y462429D01*
X66284Y462118D01*
X65508Y461883D01*
X64713Y461725D01*
X63906Y461645D01*
X63094Y461645D01*
X62287Y461725D01*
X61492Y461883D01*
X60716Y462118D01*
X59966Y462429D01*
X59251Y462811D01*
X58577Y463262D01*
X57950Y463776D01*
X57376Y464350D01*
X56862Y464977D01*
X56411Y465651D01*
X56029Y466366D01*
X55718Y467116D01*
X55483Y467892D01*
X55325Y468687D01*
X55245Y469494D01*
X55245Y470306D01*
X55325Y471113D01*
X55483Y471908D01*
X55718Y472684D01*
X56029Y473434D01*
X56411Y474149D01*
X56862Y474823D01*
X57376Y475450D01*
X57950Y476024D01*
X58577Y476538D01*
X59251Y476989D01*
X59966Y477371D01*
X60716Y477682D01*
X61492Y477917D01*
X62287Y478076D01*
X63094Y478155D01*
X63906Y478155D01*
X64713Y478076D01*
X65508Y477917D01*
X66284Y477682D01*
X67034Y477371D01*
X67749Y476989D01*
X68423Y476538D01*
X69050Y476024D01*
X69624Y475450D01*
X70138Y474823D01*
X70589Y474149D01*
X70971Y473434D01*
X71282Y472684D01*
X71517Y471908D01*
X71676Y471113D01*
X71755Y470306D01*
X71755Y469494D01*
X71755Y317094D02*
X71676Y316287D01*
X71517Y315492D01*
X71282Y314716D01*
X70971Y313966D01*
X70589Y313251D01*
X70138Y312577D01*
X69624Y311950D01*
X69050Y311376D01*
X68423Y310862D01*
X67749Y310411D01*
X67034Y310029D01*
X66284Y309718D01*
X65508Y309483D01*
X64713Y309325D01*
X63906Y309245D01*
X63094Y309245D01*
X62287Y309325D01*
X61492Y309483D01*
X60716Y309718D01*
X59966Y310029D01*
X59251Y310411D01*
X58577Y310862D01*
X57950Y311376D01*
X57376Y311950D01*
X56862Y312577D01*
X56411Y313251D01*
X56029Y313966D01*
X55718Y314716D01*
X55483Y315492D01*
X55325Y316287D01*
X55245Y317094D01*
X55245Y317906D01*
X55325Y318713D01*
X55483Y319508D01*
X55718Y320284D01*
X56029Y321034D01*
X56411Y321749D01*
X56862Y322423D01*
X57376Y323050D01*
X57950Y323624D01*
X58577Y324138D01*
X59251Y324589D01*
X59966Y324971D01*
X60716Y325282D01*
X61492Y325517D01*
X62287Y325676D01*
X63094Y325755D01*
X63906Y325755D01*
X64713Y325676D01*
X65508Y325517D01*
X66284Y325282D01*
X67034Y324971D01*
X67749Y324589D01*
X68423Y324138D01*
X69050Y323624D01*
X69624Y323050D01*
X70138Y322423D01*
X70589Y321749D01*
X70971Y321034D01*
X71282Y320284D01*
X71517Y319508D01*
X71676Y318713D01*
X71755Y317906D01*
X71755Y317094D01*
X478155Y317094D02*
X478076Y316287D01*
X477917Y315492D01*
X477682Y314716D01*
X477371Y313966D01*
X476989Y313251D01*
X476538Y312577D01*
X476024Y311950D01*
X475450Y311376D01*
X474823Y310862D01*
X474149Y310411D01*
X473434Y310029D01*
X472684Y309718D01*
X471908Y309483D01*
X471113Y309325D01*
X470306Y309245D01*
X469494Y309245D01*
X468687Y309325D01*
X467892Y309483D01*
X467116Y309718D01*
X466366Y310029D01*
X465651Y310411D01*
X464977Y310862D01*
X464350Y311376D01*
X463776Y311950D01*
X463262Y312577D01*
X462811Y313251D01*
X462429Y313966D01*
X462118Y314716D01*
X461883Y315492D01*
X461725Y316287D01*
X461645Y317094D01*
X461645Y317906D01*
X461725Y318713D01*
X461883Y319508D01*
X462118Y320284D01*
X462429Y321034D01*
X462811Y321749D01*
X463262Y322423D01*
X463776Y323050D01*
X464350Y323624D01*
X464977Y324138D01*
X465651Y324589D01*
X466366Y324971D01*
X467116Y325282D01*
X467892Y325517D01*
X468687Y325676D01*
X469494Y325755D01*
X470306Y325755D01*
X471113Y325676D01*
X471908Y325517D01*
X472684Y325282D01*
X473434Y324971D01*
X474149Y324589D01*
X474823Y324138D01*
X475450Y323624D01*
X476024Y323050D01*
X476538Y322423D01*
X476989Y321749D01*
X477371Y321034D01*
X477682Y320284D01*
X477917Y319508D01*
X478076Y318713D01*
X478155Y317906D01*
X478155Y317094D01*
X478155Y469494D02*
X478076Y468687D01*
X477917Y467892D01*
X477682Y467116D01*
X477371Y466366D01*
X476989Y465651D01*
X476538Y464977D01*
X476024Y464350D01*
X475450Y463776D01*
X474823Y463262D01*
X474149Y462811D01*
X473434Y462429D01*
X472684Y462118D01*
X471908Y461883D01*
X471113Y461725D01*
X470306Y461645D01*
X469494Y461645D01*
X468687Y461725D01*
X467892Y461883D01*
X467116Y462118D01*
X466366Y462429D01*
X465651Y462811D01*
X464977Y463262D01*
X464350Y463776D01*
X463776Y464350D01*
X463262Y464977D01*
X462811Y465651D01*
X462429Y466366D01*
X462118Y467116D01*
X461883Y467892D01*
X461725Y468687D01*
X461645Y469494D01*
X461645Y470306D01*
X461725Y471113D01*
X461883Y471908D01*
X462118Y472684D01*
X462429Y473434D01*
X462811Y474149D01*
X463262Y474823D01*
X463776Y475450D01*
X464350Y476024D01*
X464977Y476538D01*
X465651Y476989D01*
X466366Y477371D01*
X467116Y477682D01*
X467892Y477917D01*
X468687Y478076D01*
X469494Y478155D01*
X470306Y478155D01*
X471113Y478076D01*
X471908Y477917D01*
X472684Y477682D01*
X473434Y477371D01*
X474149Y476989D01*
X474823Y476538D01*
X475450Y476024D01*
X476024Y475450D01*
X476538Y474823D01*
X476989Y474149D01*
X477371Y473434D01*
X477682Y472684D01*
X477917Y471908D01*
X478076Y471113D01*
X478155Y470306D01*
X478155Y469494D01*
M02*
