M48
;GenerationSoftware,Autodesk,EAGLE,9.6.2*%
;CreationDate,2021-07-11T16:07:28Z*%
FMAT,2
ICI,OFF
METRIC,TZ,000.000
T7C0.800
T6C0.813
T5C0.900
T4C1.000
T3C1.016
T2C1.118
T1C1.651
%
G90
M71
T1
X6350Y46990
X6350Y31750
X46990Y31750
X46990Y46990
T2
X72390Y68580
X72390Y76200
X72390Y72390
T3
X16510Y73660
X19050Y73660
X3810Y73660
X6350Y73660
X8890Y73660
X11430Y73660
X13970Y73660
T4
X42545Y58420
X42545Y55880
X42545Y60960
X42545Y63500
X42545Y66040
X42545Y68580
X51435Y73660
X53975Y73660
X65405Y73660
X62865Y73660
X44450Y31750
X66675Y55880
X44450Y46990
X41910Y46990
X39370Y46990
X36830Y46990
X34290Y46990
X31750Y46990
X29210Y46990
X26670Y46990
X24130Y46990
X21590Y46990
X19050Y46990
X16510Y46990
X64135Y55880
X41910Y31750
X39370Y31750
X36830Y31750
X34290Y31750
X31750Y31750
X26670Y31750
X24130Y31750
X19050Y31750
X16510Y31750
X21590Y31750
X29210Y31750
X13970Y46990
X11430Y46990
X8890Y46990
X11430Y31750
X8890Y31750
X50800Y55880
X53340Y55880
X13970Y31750
X55880Y55880
T5
X72390Y61230
X72390Y63230
X15240Y6620
X15240Y8620
X24130Y6620
X24130Y8620
X31750Y6620
X31750Y8620
X38100Y6620
X38100Y8620
X66040Y7890
X66040Y9890
T6
X36830Y73660
X44450Y73660
X31750Y20320
X24130Y12700
X24130Y20320
X15240Y12700
X15240Y20320
X26670Y73660
X34290Y73660
X57150Y45720
X57150Y43180
X64770Y33020
X64770Y35560
X57150Y40640
X57150Y38100
X76200Y25400
X57150Y35560
X64770Y38100
X64770Y40640
X64770Y43180
X64770Y45720
X68580Y25400
X68580Y43180
X76200Y43180
X68580Y40640
X76200Y40640
X68580Y38100
X57150Y33020
X76200Y38100
X76200Y35560
X68580Y35560
X68580Y33020
X76200Y33020
X38100Y20320
X38100Y12700
X31750Y12700
T7
X50800Y7620
X45720Y7620
X43180Y7620
X55880Y7620
X58420Y7620
X60960Y7620
X53340Y7620
X48260Y7620
M30